<?xml version="1.0" encoding="utf-8"?>
<!-- Generator: Adobe Illustrator 26.0.1, SVG Export Plug-In . SVG Version: 6.00 Build 0)  -->
<svg version="1.1" id="圖層_1" xmlns="http://www.w3.org/2000/svg" xmlns:xlink="http://www.w3.org/1999/xlink" x="0px" y="0px"
	 viewBox="0 0 87.8 73.6" style="enable-background:new 0 0 87.8 73.6;" xml:space="preserve">
<style type="text/css">
	.st0{fill:#02FF02;}
	.st1{enable-background:new    ;}
</style>
<g>
	<rect x="16.3" class="st0" width="71.5" height="71.5"/>
</g>
<g class="st1">
	<path d="M51.8,57.5c-3,0-5.8-0.5-8.5-1.6c-2.6-1.1-5-2.6-7-4.6s-3.6-4.3-4.7-6.9c-1.1-2.6-1.7-5.5-1.7-8.6c0-3,0.6-5.8,1.7-8.5
		c1.1-2.6,2.7-4.9,4.7-6.9c2-2,4.3-3.6,6.9-4.7c2.6-1.1,5.5-1.7,8.5-1.7c3,0,5.8,0.6,8.5,1.7c2.6,1.1,4.9,2.7,6.9,4.7
		s3.6,4.3,4.7,6.9s1.7,5.4,1.7,8.5c0,3.1-0.6,6-1.7,8.6c-1.1,2.6-2.7,5-4.7,6.9c-2,2-4.3,3.5-6.9,4.6C57.6,57,54.8,57.5,51.8,57.5z
		 M51.7,52.9c2.4,0,4.7-0.4,6.8-1.3c2.1-0.9,3.9-2.1,5.5-3.7c1.6-1.6,2.8-3.4,3.7-5.5c0.9-2.1,1.3-4.3,1.3-6.7
		c0-2.4-0.4-4.6-1.3-6.7c-0.9-2.1-2.1-3.9-3.7-5.5c-1.6-1.6-3.4-2.8-5.5-3.7c-2.1-0.9-4.3-1.3-6.7-1.3s-4.6,0.4-6.7,1.3
		c-2.1,0.9-3.9,2.1-5.5,3.7c-1.6,1.6-2.8,3.4-3.7,5.5c-0.9,2.1-1.3,4.3-1.3,6.7c0,2.4,0.4,4.6,1.3,6.7c0.9,2.1,2.1,3.9,3.7,5.5
		c1.6,1.6,3.4,2.8,5.5,3.7C47.1,52.5,49.3,52.9,51.7,52.9z M52.2,49.3c-2.5,0-4.8-0.6-6.8-1.8c-2-1.2-3.5-2.8-4.7-4.9
		c-1.1-2.1-1.7-4.4-1.7-7.1c0-2.6,0.5-5,1.6-7.1c1.1-2.1,2.6-3.7,4.5-4.9c1.9-1.2,4.2-1.8,6.7-1.8c3.7,0,6.8,1.5,9.3,4.5
		c0.4,0.6,0.6,1.1,0.5,1.8c-0.1,0.6-0.5,1.2-1.1,1.6c-0.5,0.3-1,0.4-1.6,0.3c-0.6-0.1-1.1-0.4-1.6-0.9c-1.5-1.6-3.3-2.5-5.5-2.5
		c-1.6,0-2.9,0.4-4.1,1.1c-1.2,0.7-2.1,1.8-2.8,3.1c-0.7,1.3-1,2.9-1,4.6c0,1.7,0.3,3.3,1,4.6c0.7,1.3,1.6,2.4,2.8,3.1
		c1.2,0.7,2.6,1.1,4.2,1.1c2,0,3.7-0.5,5-1.6c0.5-0.4,1.1-0.7,1.7-0.8c0.6-0.1,1.1,0.1,1.6,0.5c0.6,0.5,0.9,1.1,1,1.7
		c0.1,0.6-0.2,1.2-0.6,1.7C58.4,48.2,55.6,49.3,52.2,49.3z"/>
</g>
</svg>
