<svg xmlns="http://www.w3.org/2000/svg" viewBox="0 0 9.62 18"><defs><style>.cls-1{fill:#fff;}</style></defs><g id="圖層_2" data-name="圖層 2"><g id="圖層_1-2" data-name="圖層 1"><path class="cls-1" d="M2.87,14.07V10.34c0-.22,0-.23-.22-.23H.19c-.14,0-.19,0-.19-.19Q0,8.49,0,7.05c0-.14,0-.18.18-.18H2.67c.16,0,.21,0,.2-.21,0-.89,0-1.78,0-2.67a4.48,4.48,0,0,1,.69-2.3A3.59,3.59,0,0,1,6,.12a7.53,7.53,0,0,1,2.37,0l1,.11c.25,0,.25,0,.25.27,0,.78,0,1.55,0,2.33,0,.14,0,.19-.19.18-.4,0-.8,0-1.2,0a3.32,3.32,0,0,0-.89.15,1.38,1.38,0,0,0-1,1.3c0,.76,0,1.53,0,2.29,0,.14.05.17.17.17H9.29c.16,0,.19,0,.17.2C9.3,8,9.16,9,9,9.94c0,.13-.07.18-.2.18H6.56c-.17,0-.21.06-.21.22v7.43c0,.24,0,.24-.23.24h-3c-.25,0-.25,0-.25-.24Z"/></g></g></svg>